<svg viewBox="0 0 330 200" xmlns="http://www.w3.org/2000/svg"><g><g><g><g><g><line x1="61.77000045776367" y1="178.01999950408936" x2="56.77000045776367" y2="178.01999950408936" style="visibility: inherit;" fill="rgb(0, 0, 0)" stroke="rgb(204, 204, 204)" stroke-width="1px"></line><line x1="61.77000045776367" y1="163.18499954541525" x2="56.77000045776367" y2="163.18499954541525" style="visibility: inherit;" fill="rgb(0, 0, 0)" stroke="rgb(204, 204, 204)" stroke-width="1px"></line><line x1="61.77000045776367" y1="148.34999958674112" x2="56.77000045776367" y2="148.34999958674112" style="visibility: inherit;" fill="rgb(0, 0, 0)" stroke="rgb(204, 204, 204)" stroke-width="1px"></line><line x1="61.77000045776367" y1="133.51499962806702" x2="56.77000045776367" y2="133.51499962806702" style="visibility: inherit;" fill="rgb(0, 0, 0)" stroke="rgb(204, 204, 204)" stroke-width="1px"></line><line x1="61.77000045776367" y1="118.67999966939291" x2="56.77000045776367" y2="118.67999966939291" style="visibility: inherit;" fill="rgb(0, 0, 0)" stroke="rgb(204, 204, 204)" stroke-width="1px"></line><line x1="61.77000045776367" y1="103.84499971071878" x2="56.77000045776367" y2="103.84499971071878" style="visibility: inherit;" fill="rgb(0, 0, 0)" stroke="rgb(204, 204, 204)" stroke-width="1px"></line><line x1="61.77000045776367" y1="89.00999975204468" x2="56.77000045776367" y2="89.00999975204468" style="visibility: inherit;" fill="rgb(0, 0, 0)" stroke="rgb(204, 204, 204)" stroke-width="1px"></line><line x1="61.77000045776367" y1="74.17499979337056" x2="56.77000045776367" y2="74.17499979337056" style="visibility: inherit;" fill="rgb(0, 0, 0)" stroke="rgb(204, 204, 204)" stroke-width="1px"></line><line x1="61.77000045776367" y1="59.33999983469646" x2="56.77000045776367" y2="59.33999983469646" style="visibility: inherit;" fill="rgb(0, 0, 0)" stroke="rgb(204, 204, 204)" stroke-width="1px"></line><line x1="61.77000045776367" y1="44.50499987602231" x2="56.77000045776367" y2="44.50499987602231" style="visibility: inherit;" fill="rgb(0, 0, 0)" stroke="rgb(204, 204, 204)" stroke-width="1px"></line><line x1="61.77000045776367" y1="29.669999917348264" x2="56.77000045776367" y2="29.669999917348264" style="visibility: inherit;" fill="rgb(0, 0, 0)" stroke="rgb(204, 204, 204)" stroke-width="1px"></line><line x1="61.77000045776367" y1="14.834999958674132" x2="56.77000045776367" y2="14.834999958674132" style="visibility: inherit;" fill="rgb(0, 0, 0)" stroke="rgb(204, 204, 204)" stroke-width="1px"></line><line x1="61.77000045776367" y1="0" x2="56.77000045776367" y2="0" style="visibility: inherit;" fill="rgb(0, 0, 0)" stroke="rgb(204, 204, 204)" stroke-width="1px"></line></g><g transform="translate(51.77000045776367, 0)"><text style="text-anchor: end; visibility: hidden; font-family: &quot;Helvetica Neue&quot;, sans-serif; font-size: 12px; font-weight: 200;" x="0" y="178.01999950408936" dx="0em" dy="0.3em" fill="rgb(50, 49, 63)" stroke="none" stroke-width="1px">-2e-3</text><text style="text-anchor: end; visibility: inherit; font-family: &quot;Helvetica Neue&quot;, sans-serif; font-size: 12px; font-weight: 200;" x="0" y="163.18499954541525" dx="0em" dy="0.3em" fill="rgb(50, 49, 63)" stroke="none" stroke-width="1px">0</text><text style="text-anchor: end; visibility: hidden; font-family: &quot;Helvetica Neue&quot;, sans-serif; font-size: 12px; font-weight: 200;" x="0" y="148.34999958674112" dx="0em" dy="0.3em" fill="rgb(50, 49, 63)" stroke="none" stroke-width="1px">2e-3</text><text style="text-anchor: end; visibility: inherit; font-family: &quot;Helvetica Neue&quot;, sans-serif; font-size: 12px; font-weight: 200;" x="0" y="133.51499962806702" dx="0em" dy="0.3em" fill="rgb(50, 49, 63)" stroke="none" stroke-width="1px">4e-3</text><text style="text-anchor: end; visibility: hidden; font-family: &quot;Helvetica Neue&quot;, sans-serif; font-size: 12px; font-weight: 200;" x="0" y="118.67999966939291" dx="0em" dy="0.3em" fill="rgb(50, 49, 63)" stroke="none" stroke-width="1px">6e-3</text><text style="text-anchor: end; visibility: inherit; font-family: &quot;Helvetica Neue&quot;, sans-serif; font-size: 12px; font-weight: 200;" x="0" y="103.84499971071878" dx="0em" dy="0.3em" fill="rgb(50, 49, 63)" stroke="none" stroke-width="1px">8e-3</text><text style="text-anchor: end; visibility: hidden; font-family: &quot;Helvetica Neue&quot;, sans-serif; font-size: 12px; font-weight: 200;" x="0" y="89.00999975204468" dx="0em" dy="0.3em" fill="rgb(50, 49, 63)" stroke="none" stroke-width="1px">0.01</text><text style="text-anchor: end; visibility: inherit; font-family: &quot;Helvetica Neue&quot;, sans-serif; font-size: 12px; font-weight: 200;" x="0" y="74.17499979337056" dx="0em" dy="0.3em" fill="rgb(50, 49, 63)" stroke="none" stroke-width="1px">0.012</text><text style="text-anchor: end; visibility: hidden; font-family: &quot;Helvetica Neue&quot;, sans-serif; font-size: 12px; font-weight: 200;" x="0" y="59.33999983469646" dx="0em" dy="0.3em" fill="rgb(50, 49, 63)" stroke="none" stroke-width="1px">0.014</text><text style="text-anchor: end; visibility: inherit; font-family: &quot;Helvetica Neue&quot;, sans-serif; font-size: 12px; font-weight: 200;" x="0" y="44.50499987602231" dx="0em" dy="0.3em" fill="rgb(50, 49, 63)" stroke="none" stroke-width="1px">0.016</text><text style="text-anchor: end; visibility: hidden; font-family: &quot;Helvetica Neue&quot;, sans-serif; font-size: 12px; font-weight: 200;" x="0" y="29.669999917348264" dx="0em" dy="0.3em" fill="rgb(50, 49, 63)" stroke="none" stroke-width="1px">0.018</text><text style="text-anchor: end; visibility: inherit; font-family: &quot;Helvetica Neue&quot;, sans-serif; font-size: 12px; font-weight: 200;" x="0" y="14.834999958674132" dx="0em" dy="0.3em" fill="rgb(50, 49, 63)" stroke="none" stroke-width="1px">0.02</text><text style="text-anchor: end; visibility: hidden; font-family: &quot;Helvetica Neue&quot;, sans-serif; font-size: 12px; font-weight: 200;" x="0" y="0" dx="0em" dy="0.3em" fill="rgb(50, 49, 63)" stroke="none" stroke-width="1px">0.022</text></g><line x1="61.77000045776367" y1="0" x2="61.77000045776367" y2="178.01999950408936" fill="rgb(0, 0, 0)" stroke="rgb(204, 204, 204)" stroke-width="1px"></line></g></g><g transform="translate(61, 0)" clip-path="url(#clip_0)"><clipPath id="clip_0"><rect width="268" height="178"></rect></clipPath><g><g><g><line x1="0" y1="0" x2="0" y2="178.01999950408936" fill="rgb(0, 0, 0)" stroke="rgb(60, 60, 60)" stroke-width="1px" opacity="0.25"></line><line x1="22.352499961853027" y1="0" x2="22.352499961853027" y2="178.01999950408936" fill="rgb(0, 0, 0)" stroke="rgb(60, 60, 60)" stroke-width="1px" opacity="0.25"></line><line x1="44.704999923706055" y1="0" x2="44.704999923706055" y2="178.01999950408936" fill="rgb(0, 0, 0)" stroke="rgb(60, 60, 60)" stroke-width="1px" opacity="0.25"></line><line x1="67.05749988555908" y1="0" x2="67.05749988555908" y2="178.01999950408936" fill="rgb(0, 0, 0)" stroke="rgb(60, 60, 60)" stroke-width="1px" opacity="0.25"></line><line x1="89.40999984741211" y1="0" x2="89.40999984741211" y2="178.01999950408936" fill="rgb(0, 0, 0)" stroke="rgb(60, 60, 60)" stroke-width="1px" opacity="0.25"></line><line x1="111.76249980926514" y1="0" x2="111.76249980926514" y2="178.01999950408936" fill="rgb(0, 0, 0)" stroke="rgb(60, 60, 60)" stroke-width="1px" opacity="0.25"></line><line x1="134.11499977111816" y1="0" x2="134.11499977111816" y2="178.01999950408936" fill="rgb(0, 0, 0)" stroke="rgb(60, 60, 60)" stroke-width="1px" opacity="0.25"></line><line x1="156.4674997329712" y1="0" x2="156.4674997329712" y2="178.01999950408936" fill="rgb(0, 0, 0)" stroke="rgb(60, 60, 60)" stroke-width="1px" opacity="0.25"></line><line x1="178.81999969482422" y1="0" x2="178.81999969482422" y2="178.01999950408936" fill="rgb(0, 0, 0)" stroke="rgb(60, 60, 60)" stroke-width="1px" opacity="0.25"></line><line x1="201.17249965667725" y1="0" x2="201.17249965667725" y2="178.01999950408936" fill="rgb(0, 0, 0)" stroke="rgb(60, 60, 60)" stroke-width="1px" opacity="0.25"></line><line x1="223.52499961853027" y1="0" x2="223.52499961853027" y2="178.01999950408936" fill="rgb(0, 0, 0)" stroke="rgb(60, 60, 60)" stroke-width="1px" opacity="0.25"></line><line x1="245.8774995803833" y1="0" x2="245.8774995803833" y2="178.01999950408936" fill="rgb(0, 0, 0)" stroke="rgb(60, 60, 60)" stroke-width="1px" opacity="0.25"></line><line x1="268.2299995422363" y1="0" x2="268.2299995422363" y2="178.01999950408936" fill="rgb(0, 0, 0)" stroke="rgb(60, 60, 60)" stroke-width="1px" opacity="0.25"></line></g><g><line x1="0" y1="178.01999950408936" x2="268.2299995422363" y2="178.01999950408936" fill="rgb(0, 0, 0)" stroke="rgb(60, 60, 60)" stroke-width="1px" opacity="0.25"></line><line x1="0" y1="163.18499954541525" x2="268.2299995422363" y2="163.18499954541525" fill="rgb(0, 0, 0)" stroke="rgb(60, 60, 60)" stroke-width="1px" opacity="0.25"></line><line x1="0" y1="148.34999958674112" x2="268.2299995422363" y2="148.34999958674112" fill="rgb(0, 0, 0)" stroke="rgb(60, 60, 60)" stroke-width="1px" opacity="0.25"></line><line x1="0" y1="133.51499962806702" x2="268.2299995422363" y2="133.51499962806702" fill="rgb(0, 0, 0)" stroke="rgb(60, 60, 60)" stroke-width="1px" opacity="0.25"></line><line x1="0" y1="118.67999966939291" x2="268.2299995422363" y2="118.67999966939291" fill="rgb(0, 0, 0)" stroke="rgb(60, 60, 60)" stroke-width="1px" opacity="0.25"></line><line x1="0" y1="103.84499971071878" x2="268.2299995422363" y2="103.84499971071878" fill="rgb(0, 0, 0)" stroke="rgb(60, 60, 60)" stroke-width="1px" opacity="0.25"></line><line x1="0" y1="89.00999975204468" x2="268.2299995422363" y2="89.00999975204468" fill="rgb(0, 0, 0)" stroke="rgb(60, 60, 60)" stroke-width="1px" opacity="0.25"></line><line x1="0" y1="74.17499979337056" x2="268.2299995422363" y2="74.17499979337056" fill="rgb(0, 0, 0)" stroke="rgb(60, 60, 60)" stroke-width="1px" opacity="0.25"></line><line x1="0" y1="59.33999983469646" x2="268.2299995422363" y2="59.33999983469646" fill="rgb(0, 0, 0)" stroke="rgb(60, 60, 60)" stroke-width="1px" opacity="0.25"></line><line x1="0" y1="44.50499987602231" x2="268.2299995422363" y2="44.50499987602231" fill="rgb(0, 0, 0)" stroke="rgb(60, 60, 60)" stroke-width="1px" opacity="0.25"></line><line x1="0" y1="29.669999917348264" x2="268.2299995422363" y2="29.669999917348264" fill="rgb(0, 0, 0)" stroke="rgb(60, 60, 60)" stroke-width="1px" opacity="0.25"></line><line x1="0" y1="14.834999958674132" x2="268.2299995422363" y2="14.834999958674132" fill="rgb(0, 0, 0)" stroke="rgb(60, 60, 60)" stroke-width="1px" opacity="0.25"></line><line x1="0" y1="0" x2="268.2299995422363" y2="0" fill="rgb(0, 0, 0)" stroke="rgb(60, 60, 60)" stroke-width="1px" opacity="0.25"></line></g></g></g><g><g><line x1="0" y1="163.18499954541525" x2="268.2299995422363" y2="163.18499954541525" fill="rgb(0, 0, 0)" stroke="rgb(153, 153, 153)" stroke-width="1.5px"></line></g></g><g><g><line x1="22.352499961853027" y1="0" x2="22.352499961853027" y2="178.01999950408936" fill="rgb(0, 0, 0)" stroke="rgb(153, 153, 153)" stroke-width="1.5px"></line></g></g><g><g><g><g><g><path style="fill: none;" stroke="rgb(0, 119, 187)" stroke-width="2px" d="M44.704999923706055,47.18399111955128L67.05749988555908,54.14023860386786L89.40999984741211,58.55986276370126L111.76249980926514,63.732150429795055L134.11499977111816,66.18407716129781L156.4674997329712,66.78478162134081L178.81999969482422,66.3012286632947L201.17249965667725,65.13852369761818L223.52499961853027,65.41292688875933L245.8774995803833,64.3923040487322" fill="none"></path></g><g><path style="fill: none;" stroke="rgb(255, 112, 67)" stroke-width="2px" d="M28.611199951171876,-48.36731637386151L28.834724950790406,11.995170084975229L29.281774950027465,49.1231774697458L29.505299949645995,20.49562712963325L29.728824949264528,33.01499703873881L29.952349948883057,-27.83756841048472L30.399399948120116,7.267494712686101L30.622924947738646,-20.073796099067607L31.517024946212768,-6.282652525228883L31.740549945831297,22.63003816948688L31.96407494544983,13.31142080961368L32.18759994506836,49.95470292477671L32.63464994430542,59.091923709590034L32.85817494392395,80.42715111920597L33.08169994354248,39.06093878953013L33.30522494316101,30.665250268520083L33.75227494239807,27.283462013580674L33.97579994201661,67.38592739227443L34.19932494163513,50.95591955194939L34.42284994125366,41.75282343038796L34.869899940490725,31.09623025670578L35.09342494010925,45.55042501365108L35.31694993972778,51.09979932167742L35.54047493934632,78.74895644947014L35.98752493858337,45.74244452238767L36.21104993820191,70.71141659319827L36.434574937820436,78.15406589040293L36.65809993743896,66.09713221491894L37.10514993667603,52.483521141827595L37.328674936294554,77.88555364076022L37.55219993591309,52.307848376010924L37.77572493553162,40.08489001413224L37.99924993515015,42.987493507846295L38.446299934387206,41.76605628894532L38.66982493400574,46.89649480678773L38.893349933624265,42.85744618212425L39.1168749332428,51.33454711687645L39.56392493247986,53.724374790212025L39.78744993209839,62.201133314001936L40.01097493171692,72.61445502645722L40.23449993133545,45.28567517731773L40.68154993057251,38.4927070378246L40.90507493019104,17.30225565507962L41.12859992980957,22.219485098688295L41.3521249294281,29.049149183264888L41.79917492866516,29.974948346673642L42.02269992828369,21.62550814461389L42.24622492790222,70.88477401611051L42.46974992752075,72.18986358269493L42.91679992675781,97.26831439737984L43.140324926376344,71.25054748755934L43.36384992599487,69.26730670466532L43.5873749256134,59.68715014526384L44.03442492485046,47.48944682874776L44.257949924468996,62.766577360641065L44.48147492408752,40.68300774097884L44.704999923706055,53.403687850213174L44.92852492332459,53.015814550602855L45.152049922943114,69.63205677130262L45.37557492256165,52.11482960987367L45.59909992218018,51.13366074861119L46.04614992141723,47.28522746275635L46.269674921035765,29.98600398135804L46.4931999206543,54.745597418853094L46.716724920272824,63.6458683803186L47.16377491950989,68.51500178772125L47.38729991912842,44.2576679651668L47.61082491874694,58.91730014525156L47.83434991836548,72.79855201731863L48.281399917602535,63.032723522249384L48.504924917221075,65.6564904222201L48.7284499168396,87.43383666278648L48.95197491645813,44.11498176242128L49.39902491569519,46.974656550610774L49.62254991531372,42.34326855026379L49.846074914932245,43.59812195015161L50.069599914550786,52.59862175316509L50.51664991378784,44.84893109156042L50.74017491340638,27.844006353804645L50.963699913024904,31.258351910980764L51.18722491264343,9.942079862407212L51.634274911880496,24.366812141820333L51.85779991149902,65.60135143838711L52.08132491111755,68.74513627968271L52.30484991073609,17.19465483703172L52.75189990997314,13.603218066138055L52.97542490959168,9.119657069513778L53.19894990921021,44.15251501903097L53.42247490882873,50.07089308246982L53.8695249080658,75.35159751387224L54.093049907684325,68.53282021687627L54.31657490730286,77.43329120360053L54.54009990692139,75.00533806305339L54.98714990615844,58.060390518657925L55.210674905776976,88.64164319511592L55.43419990539551,86.41417193356149L55.657724905014035,93.25957275996495L56.1047749042511,91.49171339714042L56.32829990386963,96.22631201754086L56.55182490348816,88.42045465903246L56.775349903106694,82.34291905058856L57.22239990234375,92.51288443175626L57.44592490196228,89.17165905519956L57.66944990158081,84.01205382993561L57.89297490119934,53.17884484854572L58.340024900436404,52.15360343619352L58.56354990005493,47.4915945254007L58.78707489967346,46.05765834028557L59.01059989929199,62.626616591951574L59.457649898529056,54.175828194579296L59.68117489814758,46.11089918436062L59.904699897766115,40.30431247118128L60.12822489738464,68.04372140188252L60.351749897003174,49.38421780435473L60.79879989624023,56.99169900936262L61.022324895858766,50.44877152467353L61.24584989547729,65.02508325417931L61.469374895095825,54.579308853184756L61.916424894332884,49.63760523466638L62.13994989395142,49.03257838673369L62.36347489356995,70.66263134297863L62.58699989318848,48.73060769489294L63.034049892425536,44.39890396687633L63.25757489204407,52.873912543712095L63.481099891662595,63.41298357305348L63.70462489128113,65.5649761927092L64.1516748905182,63.995884623033774L64.37519989013671,64.41225250823481L64.59872488975525,80.53032069297805L64.82224988937378,79.54796028628368L65.26929988861085,90.00308424028805L65.49282488822936,93.00196802131582L65.7163498878479,65.44592915680792L65.93987488746643,78.58893961728018L66.3869248867035,62.73045513007189L66.61044988632202,57.19714052258165L66.83397488594055,78.15259137474261L67.05749988555908,73.67250478779575L67.28102488517762,85.79766988853046L67.50454988479613,72.30167659756536L67.72807488441467,80.02900609284085L67.95159988403321,79.0547122731432L68.39864988327027,98.14924934762794L68.6221748828888,84.26280036953571L68.84569988250732,62.24770810761447L69.06922488212585,77.29090568355971L69.51627488136292,77.18379126674321L69.73979988098145,65.13441484446034L69.96332488059997,63.90827975764087L70.1868498802185,56.386233988418496L70.63389987945556,55.8127482950289L70.85742487907409,57.31492001336068L71.08094987869264,93.9266575046138L71.30447487831115,102.89867300428212L71.75152487754822,75.0339909282402L71.97504987716674,72.48301778585159L72.19857487678527,82.97609155113851L72.42209987640382,76.5095800321062L72.86914987564087,74.84574263403331L73.0926748752594,65.64510591649261L73.31619987487792,64.07054476906863L73.53972487449646,76.51118195514694L73.98677487373352,65.64639160230882L74.21029987335206,72.38715029872932L74.43382487297059,64.77223330316825L74.65734987258911,73.03504856067022L75.10439987182617,99.14277376982322L75.3279248714447,88.3553649651266L75.55144987106324,75.9102610815247L75.77497487068176,78.6540919543631L76.22202486991883,34.5194185262244L76.44554986953734,36.35608801622138L76.66907486915588,47.569138976524954L76.89259986877441,55.849896047777634L77.33964986801148,59.78066747330844L77.56317486763001,62.00536216724076L77.78669986724853,63.160991543785926L78.01022486686706,37.43974426450808L78.45727486610411,49.7387854030292L78.68079986572266,66.99368259494227L78.9043248653412,44.904539709235536L79.12784986495971,38.34739252890296L79.57489986419678,72.39361007775715L79.7984248638153,81.18587865807427L80.02194986343385,98.99669538194762L80.24547486305238,86.67562535760567L80.69252486228943,79.54757405825289L80.91604986190796,84.8275154226073L81.13957486152648,83.14919598163969L81.36309986114502,53.62895287300128L81.81014986038208,54.95093594854447L82.03367486000062,68.14699587234975L82.25719985961913,50.64532107063532L82.48072485923767,59.84367991680068L82.7042498588562,64.26688777859167L83.15129985809327,77.21424350037216L83.3748248577118,81.35455546707912L83.59834985733032,51.735494734525744L83.82187485694885,69.56769375839643L84.2689248561859,62.62787255725638L84.49244985580444,63.835521734276284L84.71597485542299,67.95518641439233L84.9394998550415,78.281834527005L85.38654985427857,44.10053804238487L85.61007485389709,66.68528525313845L85.83359985351562,79.58872165288192L86.05712485313416,57.978873928660576L86.50417485237122,58.47367321914324L86.72769985198974,50.78902854936439L86.95122485160827,49.53172748539575L87.1747498512268,64.66049365874903L87.62179985046386,72.93657298645896L87.8453248500824,81.36615555004298L88.06884984970092,82.31888600054967L88.29237484931946,95.07539037890382L88.73942484855651,93.86785970200661L88.96294984817504,77.19630851240801L89.18647484779359,91.47976396707699L89.40999984741211,71.45430359326576L89.63352484703064,50.965708251388975L89.85704984664918,58.45726831068177L90.0805748462677,68.43624579270158L90.30409984588623,76.5677554697485L90.7511498451233,71.89047770086776L90.97467484474183,59.89478270942337L91.19819984436036,55.511095125160196L91.42172484397888,76.08831149848827L91.86877484321595,79.71821425292906L92.09229984283446,76.8022554776602L92.31582484245301,79.62974257652341L92.53934984207153,93.3328087919163L92.9863998413086,85.07969296030637L93.20992484092712,78.37294324094313L93.43344984054565,65.02526914011548L93.65697484016418,64.97283348785012L94.10402483940125,88.77182049832216L94.32754983901978,72.4911591766997L94.5510748386383,83.25979222989824L94.77459983825683,78.351366389279L95.22164983749389,69.6952338374724L95.44517483711243,83.11431492036533L95.66869983673097,62.093893962978086L95.89222483634948,88.61502100154588L96.33927483558655,76.63058066088563L96.56279983520507,45.33732818392332L96.78632483482362,63.0235793826411L97.00984983444215,82.17510361725685L97.4568998336792,71.215077062575L97.68042483329774,88.5414392777042L97.90394983291625,97.6111943921896L98.12747483253479,93.0590819486398L98.57452483177185,75.31531022515901L98.79804983139039,90.29433632281956L99.0215748310089,82.78353275292491L99.24509983062744,97.39012100427703L99.69214982986449,80.64819245725748L99.91567482948304,81.90388621142485L100.13919982910157,92.01714582372303L100.36272482872009,74.98984339110172L100.80977482795716,64.56365509497185L101.03329982757568,76.90973821847636L101.25682482719421,80.27602286499923L101.48034982681276,71.62068541565624L101.92739982604981,78.5990924386441L102.15092482566834,91.21933222969624L102.37444982528686,84.56659165207428L102.59797482490539,72.65056397879077L103.04502482414246,35.67553554678284L103.26854982376099,55.185830569678885L103.49207482337951,60.28639153335028L103.71559982299804,55.65746560872596L104.1626498222351,88.03608847245998L104.38617482185363,74.02814305470463L104.60969982147218,80.04910454315177L104.8332248210907,88.90754592189829L105.05674982070923,67.72099370891219L105.50379981994628,72.68061849547207L105.72732481956481,78.81257037645358L105.95084981918336,80.39220862541421L106.17437481880188,74.31637281707378L106.62142481803895,68.15359272555925L106.84494981765747,85.03357682090308L107.068474817276,68.98898786137002L107.29199981689453,67.15263964518502L107.7390498161316,81.94835739731491L107.96257481575013,86.81441772685572L108.18609981536865,86.18612216832621L108.40962481498718,91.92197124548744L108.85667481422423,78.28171478405487L109.08019981384278,68.96545838176203L109.3037248134613,62.764888885716445L109.52724981307983,61.640845999333095L109.97429981231689,67.49334493769004L110.19782481193542,61.45947602374997L110.42134981155395,72.51333684276294L110.64487481117249,71.47285694317375L111.09192481040955,60.84193958943095L111.31544981002807,70.43110200443428L111.5389748096466,66.11253389340723L111.76249980926514,78.66161119967806L111.98602480888366,70.41863079770448L112.2095498085022,71.9232118267651L112.43307480812074,70.33854963476665L112.65659980773925,72.60841492213245L113.10364980697632,64.07550513108286L113.32717480659484,82.37172531084042L113.55069980621339,83.06273554631389L113.77422480583192,99.15768922437991L114.22127480506897,82.30742949935284L114.4447998046875,90.40746423295047L114.66832480430602,83.75123180517873L114.89184980392456,75.79044982774852L115.33889980316162,84.89433263499477L115.56242480278016,71.30990263567689L115.78594980239868,76.43286779831192L116.00947480201721,92.42704308356487L116.45652480125426,107.71696132835164L116.68004980087281,76.67888351828034L116.90357480049134,93.37789011961397L117.12709980010986,93.65212325585755L117.57414979934693,91.35494487856278L117.79767479896545,93.49502787298486L118.02119979858398,104.53653797772631L118.24472479820253,113.18534167720294L118.69177479743958,81.86909646499163L118.91529979705811,90.13458861376331L119.13882479667663,92.37362364811484L119.36234979629516,78.1126363306882L119.80939979553223,60.5724439131842L120.03292479515076,69.07897572847837L120.25644979476928,48.74360587932259L120.47997479438781,59.982514506168954L120.92702479362487,65.796943284566L121.1505497932434,60.963866928691274L121.37407479286195,60.166444337633195L121.59759979248047,71.50989918771295L122.04464979171753,73.69845875016819L122.26817479133605,59.63079810358046L122.49169979095458,63.30074373524825L122.71522479057313,69.45219051925959L123.16227478981018,80.4747917624909L123.38579978942872,90.22529740833981L123.60932478904724,67.16251767139282L123.83284978866577,73.47714906919721L124.27989978790283,89.0498294095623L124.50342478752137,80.83432992833974L124.7269497871399,74.49698839659014L124.95047478675842,92.17324336138472L125.39752478599549,69.98677746054464L125.621049785614,63.21648431020927L125.84457478523255,72.8725773927988L126.06809978485107,82.56628391629783L126.51514978408814,83.28547665826129L126.73867478370666,80.6676999515013L126.96219978332519,83.69471830734312L127.18572478294372,80.75746209371914L127.40924978256226,90.89249036406272L127.85629978179932,94.99118669108923L128.07982478141784,102.09491877662434L128.3033497810364,118.17401938562898L128.5268747806549,96.29677844564083L128.97392477989197,97.98972175980516L129.1974497795105,85.99963578374634L129.420974779129,81.84410270040553L129.64449977874756,79.06417468606942L130.09154977798462,71.1641662047193L130.31507477760314,95.57793298090222L130.5385997772217,89.9382798048937L130.7621247768402,86.21889035810891L131.20917477607728,94.30236526603238L131.4326997756958,97.82805422633932L131.65622477531434,80.23995349775453L131.87974977493286,71.75456137206989L132.32679977416993,56.9065538338546L132.55032477378845,68.31855609102713L132.773849773407,64.70195924396576L132.9973747730255,84.50099276065421L133.44442477226258,84.88811269728303L133.6679497718811,76.43195329569654L133.89147477149962,79.29692413836896L134.11499977111816,85.42719430636423L134.3385247707367,77.35814650909319L134.56204977035523,86.19839053148252L134.78557476997375,85.35812953043758L135.00909976959227,87.4838422717854L135.45614976882933,78.01160467909624L135.67967476844788,58.787859764620194L135.90319976806643,65.37403972574593L136.12672476768492,65.2833075767878L136.57377476692199,71.63926461358392L136.79729976654053,57.39119973071469L137.02082476615905,82.71693293992564L137.2443497657776,84.09750951923499L137.69139976501464,77.5485399847578L137.91492476463318,80.83763752525432L138.1384497642517,79.62660694421325L138.36197476387025,74.2884106747809L138.8090247631073,64.73490678842138L139.03254976272584,55.86958992269162L139.25607476234435,77.40041921135338L139.4795997619629,75.52327390034029L139.92664976119994,76.03871526214874L140.15017476081846,84.83986536654821L140.373699760437,51.923691107594294L140.59722476005555,81.28040156099095L141.04427475929262,56.93718464846924L141.2677997589111,83.02259798473874L141.49132475852966,58.3426237462794L141.71484975814818,65.25977127649578L142.16189975738527,77.8628646624712L142.3854247570038,67.78064770577693L142.6089497566223,59.119182626054396L142.83247475624083,83.81226869901272L143.27952475547792,79.97351745688786L143.50304975509644,69.48145570046039L143.726574754715,74.71422671227305L143.95009975433348,80.89517658219442L144.39714975357055,88.38585682146618L144.6206747531891,83.6854212197072L144.84419975280764,66.9483331752078L145.06772475242616,77.827815931773L145.5147747516632,72.32435404419095L145.73829975128174,71.85758718034117L145.96182475090026,64.12507648233886L146.1853497505188,58.11344473697871L146.63239974975585,42.450641231219834L146.8559247493744,70.19867124765729L147.07944974899291,55.49999277149692L147.30297474861146,84.34506979898194L147.7500247478485,84.01640457349284L147.97354974746705,72.58167406456151L148.19707474708557,54.78634273968373L148.4205997467041,58.937431676284206L148.86764974594118,60.701517508332614L149.09117474555967,77.23224225554912L149.31469974517822,75.08499066293622L149.53822474479676,88.44193088091423L149.76174974441528,94.50748030572171L150.20879974365235,96.40563538120198L150.43232474327087,100.08995195363246L150.6558497428894,92.11398864140726L150.87937474250793,89.28805204561252L151.326424741745,89.4277334450253L151.54994974136352,84.54494957686734L151.77347474098204,108.23736501200814L151.9969997406006,111.41162449638288L152.44404973983765,110.49262886089828L152.6675747394562,95.92868774955463L152.8910997390747,107.312616363942L153.11462473869324,95.1167584942281L153.5616747379303,94.16027215865489L153.78519973754882,91.57601151469174L154.00872473716737,91.95026595438694L154.2322497367859,72.25136213430494L154.67929973602295,69.85837286452993L154.90282473564147,75.21365533388698L155.12634973526002,62.704025713683635L155.34987473487854,93.56214699952437L155.7969247341156,90.05766682353912L156.02044973373413,72.38923907750258L156.24397473335267,92.6331267721427L156.4674997329712,93.35434172551531L156.6910247325897,86.01048447159405L156.91454973220823,97.5634426480199L157.13807473182678,93.95751251242552L157.36159973144532,110.92162713480697L157.8086497306824,100.46642471365814L158.03217473030088,77.19056032120729L158.25569972991943,73.12679807702236L158.47922472953795,62.79931403088875L158.92627472877504,88.73433249224914L159.14979972839356,98.54760116873975L159.37332472801208,103.35539621518582L159.5968497276306,93.38603059513295L160.0438997268677,109.56334341322878L160.2674247264862,101.04522698298368L160.49094972610476,82.5318843578714L160.71447472572325,73.13578795016035L161.16152472496032,81.75227306174968L161.38504972457886,78.52920814760549L161.6085747241974,89.3201132167635L161.83209972381593,91.65427191935451L162.27914972305297,81.51384095595718L162.50267472267151,77.64742036107086L162.72619972229003,76.03141898675167L162.94972472190858,82.00198725092719L163.39677472114562,79.04708838645777L163.62029972076417,70.72796741934705L163.84382472038268,102.82986681540973L164.06734972000123,74.00767505968834L164.51439971923827,91.98390665428137L164.73792471885682,102.13843590730494L164.96144971847534,85.29918857655561L165.18497471809388,69.76570009154163L165.63202471733095,71.84284501378347L165.85554971694944,94.05483889416818L166.079074716568,83.19152360492181L166.30259971618653,89.44096903380131L166.7496497154236,74.86788538262535L166.97317471504212,85.67090984689537L167.19669971466064,93.40610815750911L167.42022471427916,67.30250668299428L167.86727471351625,78.83632763856568L168.09079971313477,80.05184057492168L168.3143247127533,83.38481669324713L168.5378497123718,72.31520430574987L168.98489971160888,60.905993208190395L169.20842471122742,71.24053450946653L169.43194971084597,84.47034096170775L169.65547471046446,88.6763915596588L170.10252470970153,92.03852806056507L170.32604970932007,102.79153131256695L170.5495747089386,84.43945552657328L170.77309970855714,68.94681085449706L171.22014970779418,75.10110681356L171.44367470741273,82.1767947593736L171.66719970703124,101.40242339409089L171.8907247066498,94.86393968567751L172.1142497062683,102.72872587452336L172.56129970550538,91.78349786738754L172.7848247051239,57.763401217439466L173.00834970474244,61.840922431706446L173.23187470436096,77.85904548472914L173.678924703598,82.49244775619886L173.90244970321655,84.64819164537754L174.1259747028351,78.00010878476266L174.3494997024536,82.99971686093883L174.79654970169065,76.01172518136144L175.0200747013092,94.04188511555492L175.24359970092772,100.64402504855434L175.46712470054626,83.80057428213134L175.91417469978333,85.81596890618135L176.13769969940185,80.1472535701912L176.36122469902037,80.09611685505637L176.58474969863892,85.24633567864008L177.03179969787598,81.76671217449994L177.25532469749453,68.46192647459064L177.47884969711302,65.83351463932094L177.70237469673157,80.68498280558737L178.14942469596863,85.70117646873409L178.37294969558718,67.47775994617305L178.5964746952057,58.94315328541502L178.81999969482422,75.5194662467274L179.04352469444274,88.87437747943684L179.26704969406128,110.04718365296051L179.4905746936798,109.61129835096143L179.71409969329835,96.75768740149219L180.1611496925354,94.39806549527518L180.38467469215394,108.63322526163911L180.60819969177246,96.18634529103815L180.831724691391,89.02371217788576L181.27877469062804,88.58893458866004L181.5022996902466,83.6135872775059L181.7258246898651,61.09882695023006L181.94934968948365,51.523638933519976L182.39639968872072,57.790108441322886L182.6199246883392,72.32107931872402L182.84344968795776,84.11995492014736L183.0669746875763,69.91119788781268L183.51402468681337,86.01268843032436L183.7375496864319,73.87278366235104L183.9610746860504,77.10799763431409L184.18459968566893,97.93929460796043L184.63164968490602,112.20787723976404L184.85517468452454,101.77686173234207L185.07869968414306,87.06527623953087L185.30222468376158,76.92598218641552L185.74927468299865,88.27381334062214L185.9727996826172,83.09105849390862L186.19632468223574,96.51709979484495L186.41984968185423,102.0155199998019L186.8668996810913,102.01970148761245L187.09042468070984,84.41796112145322L187.31394968032836,82.42225171391826L187.5374746799469,51.93690195348226L187.98452467918395,80.46770972214792L188.2080496788025,91.07988205771433L188.43157467842101,82.99469341635735L188.65509967803956,84.42291083924961L189.1021496772766,97.35618829097442L189.32567467689515,106.74097369952698L189.54919967651367,92.69479847744043L189.7727246761322,78.3146284579968L190.21977467536925,67.94170716118649L190.44329967498777,91.05558355348782L190.66682467460632,77.7870635209458L190.89034967422486,62.65983552588675L191.33739967346193,66.04898921785193L191.56092467308042,77.8627273692702L191.78444967269897,84.4310622431593L192.0079746723175,78.07174342024739L192.45502467155458,86.62905769471168L192.6785496711731,89.22218830761022L192.90207467079162,89.39059434675923L193.12559967041014,91.00663631445809L193.57264966964723,79.17398803748057L193.79617466926575,89.92559579584753L194.0196996688843,91.3016434410034L194.2432246685028,104.79307764462007L194.46674966812134,105.52199062969615L194.9137996673584,100.18960896691173L195.13732466697695,87.01690002725692L195.36084966659547,77.66978329054874L195.584374666214,76.58257867409576L196.03142466545106,95.18842095535682L196.25494966506957,90.30761526679407L196.47847466468812,77.91290812696909L196.70199966430664,85.66710131112588L197.1490496635437,102.17751398687768L197.37257466316223,103.64069436135004L197.59609966278077,86.45603503443866L197.8196246623993,68.31983239277729L198.26667466163636,68.99759763598857L198.49019966125488,82.21489454904564L198.71372466087342,75.51482699838158L198.93724966049194,73.72624166863802L199.38429965972898,57.775829941821144L199.60782465934753,87.53076550369738L199.83134965896608,79.7140546434227L200.0548746585846,94.2486848204265L200.50192465782166,81.79648857514351L200.72544965744018,74.55680168722502L200.9489746570587,85.07976084691043L201.17249965667725,82.90465745407676L201.3960246562958,96.39403353253162L201.6195496559143,91.82510036311506L201.84307465553283,72.0304082323283L202.06659965515135,74.85316371587936L202.51364965438842,81.06533472976825L202.73717465400696,92.54977454103636L202.9606996536255,103.23113411337533L203.184224653244,99.78764568404814L203.63127465248107,106.29712383922913L203.85479965209962,112.19958031847563L204.07832465171813,99.57847258560624L204.30184965133668,111.84809166570855L204.74889965057372,109.02619605607379L204.97242465019227,96.56169043093237L205.19594964981079,92.4385452192996L205.41947464942933,99.56335816846513L205.86652464866637,81.54857547260981L206.09004964828492,90.56000252141612L206.31357464790344,99.49680876123568L206.53709964752198,102.34312815088815L206.98414964675902,90.68178405516626L207.20767464637754,67.039559508653L207.4311996459961,88.10627601224924L207.65472464561464,90.60107682425804L208.1017746448517,88.96111465121383L208.3252996444702,93.58028799846996L208.54882464408874,83.10026090099701L208.77234964370726,81.81603048091704L209.21939964294435,97.8926927227635L209.44292464256287,82.45690835366922L209.6664496421814,101.15414954669441L209.8899746417999,79.57964260219042L210.337024641037,81.70097206326594L210.56054964065552,84.7220485941125L210.78407464027407,98.763051161717L211.00759963989256,103.24234439909945L211.45464963912963,115.63556033946313L211.67817463874817,103.90015948323553L211.90169963836672,86.17573379905221L212.12522463798524,93.15503212544579L212.57227463722228,76.79409174784195L212.79579963684083,83.72324548067567L213.01932463645934,83.47870689212256L213.2428496360779,95.55734642397113L213.68989963531493,103.7881254165917L213.91342463493348,119.7717568102766L214.136949634552,109.40246800536424L214.36047463417054,102.00214051615968L214.80752463340758,111.36710565403023L215.03104963302613,98.73168242299971L215.25457463264465,103.79046556157368L215.4780996322632,81.913819400191L215.92514963150026,73.17904170699198L216.14867463111875,64.89344760182014L216.3721996307373,82.34211578976287L216.59572463035585,82.38067731001783L216.81924962997437,80.43923493134521L217.26629962921143,80.14368846940509L217.48982462882995,87.58963982868231L217.71334962844847,90.3795158411618L217.93687462806702,93.542667108677L218.38392462730408,83.38159161350438L218.6074496269226,97.9863512861485L218.83097462654112,88.094289195151L219.05449962615967,97.1819307602237L219.50154962539673,111.05421149647195L219.72507462501528,103.48879198413012L219.94859962463377,105.96504203435775L220.17212462425232,115.48978190592419L220.61917462348939,94.94884819747534L220.8426996231079,94.3924597641383L221.06622462272645,88.16915802829928L221.28974962234497,89.24730491002214L221.73679962158204,82.1958367329004L221.96032462120056,86.41417954311672L222.1838496208191,104.8532854262608L222.40737462043762,112.35112144890137L222.8544246196747,87.32155422867592L223.0779496192932,62.364250936693125L223.30147461891175,60.39173357929616L223.52499961853027,74.74828959754797L223.7485246181488,88.44473082235687L223.9720496177673,97.73816231357902L224.19557461738586,87.58959837200779L224.4190996170044,81.94373801676478L224.86614961624147,88.61810484609572L225.08967461585996,91.16377051291663L225.3131996154785,86.19642310358117L225.53672461509703,45.19248800967185L225.98377461433412,53.63777366411543L226.20729961395264,50.257525732140735L226.43082461357116,77.66692192412347L226.65434961318968,72.51845736244272L227.10139961242677,68.8294003747916L227.3249246120453,73.60943252973297L227.54844961166384,86.62170410960255L227.77197461128233,96.90660206838866L228.2190246105194,88.51313643946341L228.44254961013795,71.16686585437647L228.6660746097565,84.4288836600864L228.889599609375,99.68108479289228L229.33664960861205,81.23900701847525L229.5601746082306,84.69207954018275L229.78369960784912,96.64268795540347L230.00722460746766,77.4347798251545L230.4542746067047,86.94504378455007L230.67779960632325,93.83416477193495L230.90132460594177,84.07252417425327L231.1248496055603,84.66689279721835L231.57189960479735,62.219355572311486L231.7954246044159,65.21323404421058L232.01894960403442,81.72324096254064L232.24247460365297,85.43367089376396L232.68952460289003,77.38469098091674L232.91304960250852,89.68386430993328L233.13657460212707,90.72557871962675L233.36009960174562,100.58973469998972L233.80714960098268,81.52304094743181L234.0306746006012,93.62924960440012L234.25419960021972,107.95964059827591L234.47772459983824,102.86241257421717L234.92477459907533,84.65979563281022L235.14829959869385,107.95661853267403L235.37182459831237,91.48870846774082L235.5953495979309,91.93128057320072L236.04239959716796,110.70889081928252L236.2659245967865,112.5468422375701L236.48944959640505,115.5492259831206L236.71297459602354,107.73011140735592L237.1600245952606,90.15469353162416L237.38354959487916,90.88448231910523L237.60707459449767,92.69627425706486L237.83059959411622,92.6420066396733L238.27764959335326,98.02068735084305L238.5011745929718,91.10672725986358L238.72469959259033,69.24911563112967L238.94822459220887,71.19642637762418L239.1717495918274,77.6778294255971L239.61879959106446,74.74484871764872L239.84232459068298,98.01280143835163L240.06584959030153,94.89289311403404L240.28937458992004,91.09495739242199L240.73642458915708,90.63069848140607L240.95994958877563,86.45998978382669L241.18347458839418,92.16974977343978L241.4069995880127,74.18707952732407L241.85404958724973,80.70750023783434L242.07757458686828,85.47097520947176L242.3010995864868,84.17276100691743L242.52462458610535,70.44708886084415L242.9716745853424,89.51359599159939L243.19519958496093,88.81891811401282L243.41872458457945,91.4275901881734L243.642249584198,102.33519664062723L244.08929958343506,79.20711684292134L244.3128245830536,76.82730946573118L244.5363495826721,86.66633235446571L244.75987458229065,105.9146171680322L245.20692458152772,91.09634916124543L245.43044958114626,94.90243233487126L245.65397458076478,90.60149716349633" fill="none"></path></g></g></g></g><g opacity="0.2"><g><g><g><path style="fill: none;" stroke="rgb(0, 119, 187)" stroke-width="2px" d="M44.704999923706055,47.18399111955128L67.05749988555908,58.313987094457815L89.40999984741211,62.80270195714132L111.76249980926514,69.81476072512135L134.11499977111816,69.38531270194788L156.4674997329712,67.61577214318588L178.81999969482422,65.6097401964414L201.17249965667725,63.443288695694164L223.52499961853027,65.81761829561674L245.8774995803833,62.87679807876019" fill="none"></path></g><g><path style="fill: none;" stroke="rgb(255, 112, 67)" stroke-width="2px" d="M27.49357495307922,-105.10405582020121L27.717099952697755,3.06253465384205L28.164149951934814,-151.64747313313512L28.611199951171876,-18.12587512316489L28.834724950790406,102.53847074251125L29.281774950027465,104.81503021291009L29.505299949645995,-22.445625130480465L29.728824949264528,51.794032682215416L29.952349948883057,-119.11636053050694L30.399399948120116,59.92506999540761L30.622924947738646,-61.08572325002871L30.84644994735718,-62.63575940226079L31.06997494697571,31.731143407084204L31.517024946212768,-1.3565950668438234L31.740549945831297,65.9990729689864L31.96407494544983,-0.6665049899056612L32.18759994506836,104.91962553058968L32.63464994430542,72.79775480198938L32.85817494392395,112.42999211479713L33.08169994354248,-22.988379566742964L33.30522494316101,18.07171750383938L33.75227494239807,22.21077963524013L33.97579994201661,127.53962543136728L34.19932494163513,26.31090779857783L34.42284994125366,27.948179250437306L34.869899940490725,15.111340497843997L35.09342494010925,67.23171714771684L35.31694993972778,59.42386078340543L35.54047493934632,120.22269214022806L35.98752493858337,-3.7673233675691336L36.21104993820191,108.16487469911145L36.434574937820436,89.31803983615582L36.65809993743896,48.01173170174559L37.10514993667603,32.06310453222622L37.328674936294554,115.98860238911922L37.55219993591309,13.9412904789111L37.77572493553162,21.750452471321154L37.99924993515015,47.341398748416424L38.446299934387206,39.93390046059406L38.66982493400574,54.5921525835507L38.893349933624265,36.79887324512933L39.1168749332428,64.0501985190044L39.56392493247986,57.309116300215265L39.78744993209839,74.91627109968671L40.01097493171692,88.23443759514001L40.23449993133545,4.292505403608629L40.68154993057251,28.303254828584784L40.90507493019104,-14.483421419037796L41.12859992980957,29.59532926410128L41.3521249294281,39.29364531012979L41.79917492866516,31.36364709178676L42.02269992828369,9.101347841524245L42.24622492790222,144.77367282335544L42.46974992752075,74.14749793257154L42.91679992675781,134.8859906194072L43.140324926376344,32.22389712282856L43.36384992599487,66.29244553032427L43.5873749256134,45.316915306161576L44.03442492485046,29.192891853973663L44.257949924468996,85.68227315848101L44.48147492408752,7.557653311485524L44.704999923706055,72.48470801406467L44.92852492332459,52.4340046011874L45.152049922943114,94.55642010235225L45.37557492256165,25.838988867730222L45.59909992218018,49.66190745671747L46.04614992141723,41.512577533974024L46.269674921035765,4.037168759260624L46.4931999206543,91.88498757509566L46.716724920272824,76.99627482251688L47.16377491950989,75.81870189882518L47.38729991912842,7.871667231335181L47.61082491874694,80.9067484153787L47.83434991836548,93.62042982541922L48.281399917602535,48.38398077964547L48.504924917221075,69.5921407721762L48.7284499168396,120.09985602363605L48.95197491645813,-20.863300588126577L49.39902491569519,51.264168732895016L49.62254991531372,35.39618654974325L49.846074914932245,45.480402049983326L50.069599914550786,66.0993714576853L50.51664991378784,33.22439509915344L50.74017491340638,2.3366192471709724L50.963699913024904,36.37987024674496L51.18722491264343,-22.0323282104531L51.634274911880496,46.00391056093997L51.85779991149902,127.45316038323728L52.08132491111755,73.46081354162615L52.30484991073609,-60.13106732694479L52.75189990997314,8.2160629097975L52.97542490959168,2.394315574577348L53.19894990921021,96.70180194330668L53.42247490882873,58.948460177628135L53.8695249080658,113.27265416097583L54.093049907684325,58.30465427138236L54.31657490730286,90.7839976836869L54.54009990692139,71.36340835223267L54.98714990615844,32.642969202064705L55.210674905776976,134.51352220980291L55.43419990539551,83.07296504122988L55.657724905014035,103.52767399957015L56.1047749042511,88.83992435290358L56.32829990386963,103.32820994814155L56.55182490348816,76.71166862126984L56.775349903106694,73.22661563792272L57.22239990234375,107.76783250350783L57.44592490196228,84.15982099036452L57.66944990158081,76.27264599203971L57.89297490119934,6.929031376460927L58.340024900436404,50.6157413176652L58.56354990005493,40.4985811592114L58.78707489967346,43.90675406261292L59.01059989929199,87.48005396945054L59.457649898529056,41.49964559852086L59.68117489814758,34.013505669032554L59.904699897766115,31.594432401412263L60.12822489738464,109.65283479793436L60.351749897003174,21.39496240806298L60.79879989624023,68.40292081687446L61.022324895858766,40.634380297639865L61.24584989547729,86.88955084843798L61.469374895095825,38.91064725169295L61.916424894332884,42.22504980688876L62.13994989395142,48.12503811483458L62.36347489356995,103.10771077734603L62.58699989318848,15.832572222764412L63.034049892425536,37.90134837485135L63.25757489204407,65.58642540896575L63.481099891662595,79.22159011706556L63.70462489128113,68.7929651221928L64.1516748905182,61.64224726852062L64.37519989013671,65.03680433603638L64.59872488975525,104.7074229700929L64.82224988937378,78.07441967624209L65.26929988861085,105.68577017129464L65.49282488822936,97.50029369285747L65.7163498878479,24.11187086004611L65.93987488746643,98.30345530798856L66.3869248867035,38.94272839925944L66.61044988632202,48.897168611346245L66.83397488594055,109.58576765298407L67.05749988555908,66.9523749073754L67.28102488517762,103.98541753963256L67.50454988479613,52.05768666111767L67.72807488441467,91.62000033575406L67.95159988403321,77.59327154359674L68.39864988327027,126.79105495935507L68.6221748828888,63.43312690239736L68.84569988250732,29.225069714732626L69.06922488212585,99.85570204747762L69.51627488136292,77.02311964151845L69.73979988098145,47.060350211036024L69.96332488059997,62.06907712741163L70.1868498802185,45.10316533458493L70.63389987945556,54.952519754944504L70.85742487907409,59.568177590858326L71.08094987869264,148.84426374149348L71.30447487831115,116.35669625378458L71.75152487754822,33.23696781417735L71.97504987716674,68.65655807226867L72.19857487678527,98.71570219906889L72.42209987640382,66.80981275355771L72.86914987564087,72.34998653692395L73.0926748752594,51.844150840181555L73.31619987487792,61.70870304793266L73.53972487449646,95.1721377342644L73.98677487373352,49.34920607305165L74.21029987335206,82.49828834336004L74.43382487297059,53.349857809826645L74.65734987258911,85.42927144692317L75.10439987182617,138.30436158355272L75.3279248714447,72.17425175808168L75.55144987106324,57.24260525612182L75.77497487068176,82.76983826362073L76.22202486991883,-31.682591615983682L76.44554986953734,39.11109225121683L76.66907486915588,64.38871541698029L76.89259986877441,68.27103165465671L77.33964986801148,65.67682461160463L77.56317486763001,65.34240420813926L77.78669986724853,64.89443560860367L78.01022486686706,-1.1421266544086563L78.45727486610411,68.18734711081083L78.68079986572266,92.87602838281191L78.9043248653412,11.77082538067549L79.12784986495971,28.51167175840402L79.57489986419678,123.4629364010384L79.7984248638153,94.37428152854997L80.02194986343385,125.71292046775761L80.24547486305238,68.19402032109275L80.69252486228943,68.85549710922375L80.91604986190796,92.74742746913888L81.13957486152648,80.63171682018833L81.36309986114502,9.348588210043687L81.81014986038208,56.93391056185919L82.03367486000062,87.94108575805765L82.25719985961913,24.392808868063668L82.48072485923767,73.64121818604875L82.7042498588562,70.90169957127813L83.15129985809327,96.63527708304287L83.3748248577118,87.56502341713953L83.59834985733032,7.306903635695704L83.82187485694885,96.31599229420243L84.2689248561859,52.2181407555463L84.49244985580444,65.64699549980615L84.71597485542299,74.13468343456643L84.9394998550415,93.77180669592398L85.38654985427857,-7.171406684545303L85.61007485389709,100.56240606926876L85.83359985351562,98.9438762524971L86.05712485313416,25.564102342328567L86.50417485237122,59.21587215486721L86.72769985198974,39.26206154469611L86.95122485160827,47.6457758894428L87.1747498512268,87.35364291877892L87.62179985046386,85.3506919780238L87.8453248500824,94.01052939541897L88.06884984970092,83.7479816763097L88.29237484931946,114.21014694643506L88.73942484855651,92.05656368666081L88.96294984817504,52.188981728010106L89.18647484779359,112.90494714908044L89.40999984741211,41.41611303254891L89.63352484703064,20.232815238573693L89.85704984664918,69.69460839962096L90.0805748462677,83.40471201573136L90.30409984588623,88.7650199853189L90.7511498451233,64.87456104754665L90.97467484474183,41.901240222256774L91.19819984436036,48.93556374876539L91.42172484397888,106.95413605848034L91.86877484321595,85.16306838459023L92.09229984283446,72.42831731475692L92.31582484245301,83.8709732248182L92.53934984207153,113.88740811500566L92.9863998413086,72.70001921289152L93.20992484092712,68.31281866189822L93.43344984054565,45.003757988873986L93.65697484016418,64.89418000945209L94.10402483940125,124.47030101403018L94.32754983901978,48.07016719426599L94.5510748386383,99.41274180969604L94.77459983825683,70.98872762835013L95.22164983749389,56.71103500976247L95.44517483711243,103.24293654470472L95.66869983673097,30.563262526897205L95.89222483634948,128.39671155939757L96.33927483558655,58.65392014989517L96.56279983520507,-1.6025505315201372L96.78632483482362,89.55295618071774L97.00984983444215,110.90238996918046L97.4568998336792,54.7750372305522L97.68042483329774,114.53098260039795L97.90394983291625,111.21582706391774L98.12747483253479,86.23091328331512L98.57452483177185,48.699652639937824L98.79804983139039,112.76287546931039L99.0215748310089,71.51732739808294L99.24509983062744,119.3000033813052L99.69214982986449,55.535299636728126L99.91567482948304,83.78742684267588L100.13919982910157,107.18703524217031L100.36272482872009,49.44888974216971L100.80977482795716,48.92437265077709L101.03329982757568,95.42886290373316L101.25682482719421,85.32544983478353L101.48034982681276,58.63767924164179L101.92739982604981,89.06670297312587L102.15092482566834,110.14969191627442L102.37444982528686,74.58748078564139L102.59797482490539,54.776522468865465L103.04502482414246,-19.78700710122905L103.26854982376099,84.45127310402292L103.49207482337951,67.93723297885737L103.71559982299804,48.71407672178944L104.1626498222351,136.604022768061L104.38617482185363,53.016224928071594L104.60969982147218,89.08054677582251L104.8332248210907,102.19520799001809L105.05674982070923,35.941165389433024L105.50379981994628,80.12005567531189L105.72732481956481,88.01049819792586L105.95084981918336,82.76166599885518L106.17437481880188,65.20261910456311L106.62142481803895,58.90942258828744L106.84494981765747,110.35355296391879L107.068474817276,44.92210442207045L107.29199981689453,64.3981173209075L107.7390498161316,104.14193402550974L107.96257481575013,94.11350822116692L108.18609981536865,85.24367883053192L108.40962481498718,100.5257448612293L108.85667481422423,57.82133009190596L109.08019981384278,54.99107377832273L109.3037248134613,53.464034641648084L109.52724981307983,59.954781669758034L109.97429981231689,76.27209334522547L110.19782481193542,52.4086726528398L110.42134981155395,89.0941280712824L110.64487481117249,69.91213709378997L111.09192481040955,44.89556355881669L111.31544981002807,84.8148456269393L111.5389748096466,59.63468172686662L111.76249980926514,97.48522715908432L111.98602480888366,58.05416019474413L112.2095498085022,74.180083370356L112.43307480812074,67.961556346769L112.65659980773925,76.01321285318119L113.10364980697632,51.27614044450844L113.32717480659484,109.81605558047676L113.55069980621339,84.09925089952411L113.77422480583192,123.30011974147891L114.22127480506897,57.032039911812205L114.4447998046875,102.5575163333469L114.66832480430602,73.76688316352111L114.89184980392456,63.849276861603244L115.33889980316162,98.5501568458641L115.56242480278016,50.93325763670008L115.78594980239868,84.11731554226449L116.00947480201721,116.41830601144427L116.45652480125426,130.65183869553178L116.68004980087281,30.121766803173387L116.90357480049134,118.4264000216144L117.12709980010986,94.06347296022292L117.57414979934693,87.90917731262063L117.79767479896545,96.705152364618L118.02119979858398,121.09880313483848L118.24472479820253,126.15854722641788L118.69177479743958,34.89472864667468L118.91529979705811,102.53282683692085L119.13882479667663,95.73217619964213L119.36234979629516,56.72115535454819L119.80939979553223,34.26215528692828L120.03292479515076,81.83877345141957L120.25644979476928,18.240551105588878L120.47997479438781,76.84087744643853L120.92702479362487,74.51858645216154L121.1505497932434,53.714252394879196L121.37407479286195,58.970310451046046L121.59759979248047,88.52508146283257L122.04464979171753,76.98129809385104L122.26817479133605,38.529307133698865L122.49169979095458,68.80566218274988L122.71522479057313,78.67936069527661L123.16227478981018,97.00869362733783L123.38579978942872,104.85105587711318L123.60932478904724,32.568348065972344L123.83284978866577,82.94909616590375L124.27989978790283,112.40884992010996L124.50342478752137,68.51108070650587L124.7269497871399,64.99097609896576L124.95047478675842,118.6876258085766L125.39752478599549,36.70707860928451L125.621049785614,53.061044584706224L125.84457478523255,87.35671701668313L126.06809978485107,97.10684370154638L126.51514978408814,84.36426577120643L126.73867478370666,76.74103489136138L126.96219978332519,88.23524584110582L127.18572478294372,76.35157777328317L127.40924978256226,106.09503276957808L127.85629978179932,101.13923118162897L128.07982478141784,112.750516904927L128.3033497810364,142.29267029913598L128.5268747806549,63.48091703565852L128.97392477989197,100.52913673105168L129.1974497795105,68.01450681965811L129.420974779129,75.61080307539427L129.64449977874756,74.89428266456524L130.09154977798462,59.31415348269414L130.31507477760314,132.1985831451766L130.5385997772217,81.47880004088093L130.7621247768402,80.63980618793173L131.20917477607728,106.42757762791761L131.4326997756958,103.11658766679972L131.65622477531434,53.85780240487735L131.87974977493286,59.026473183542905L132.32679977416993,34.63454252653173L132.55032477378845,85.43655947678593L132.773849773407,59.27706397337364L132.9973747730255,114.1995430356869L133.44442477226258,85.46879260222632L133.6679497718811,63.74771419331678L133.89147477149962,83.59438040237761L134.11499977111816,94.62259955835717L134.3385247707367,65.2545748131866L134.56204977035523,99.4587565650665L134.78557476997375,84.09773802887013L135.00909976959227,90.6724113838072L135.45614976882933,63.803248290062456L135.67967476844788,29.952242392906072L135.90319976806643,75.25330966743451L136.12672476768492,65.14720935335063L136.57377476692199,81.17320016877805L136.79729976654053,36.01910240641084L137.02082476615905,120.70553275374203L137.2443497657776,86.16837438819898L137.69139976501464,67.72508568304204L137.91492476463318,85.7712838359991L138.1384497642517,77.81006107265168L138.36197476387025,66.28111627063241L138.8090247631073,50.40465095888207L139.03254976272584,42.57161462409701L139.25607476234435,109.69666314434596L139.4795997619629,72.70755593382069L139.92664976119994,76.81187730486141L140.15017476081846,98.04159052314739L140.373699760437,2.549429719163413L140.59722476005555,125.3154672410859L141.04427475929262,20.42235927968673L141.2677997589111,122.15071798914298L141.49132475852966,21.322662388590402L141.71484975814818,75.63549257182034L142.16189975738527,96.76750474143432L142.3854247570038,52.65732227073552L142.6089497566223,46.12698500647065L142.83247475624083,120.85189780845019L143.27952475547792,74.21539059370059L143.50304975509644,53.74336306581915L143.726574754715,82.56338322999201L143.95009975433348,90.16660138707651L144.39714975357055,99.62187718037382L144.6206747531891,76.6347678170687L144.84419975280764,41.8427011084587L145.06772475242616,94.14704006662078L145.5147747516632,64.06916121281792L145.73829975128174,71.15743688456644L145.96182475090026,52.526310435335375L146.1853497505188,49.09599711893847L146.63239974975585,18.956435972581545L146.8559247493744,111.82071627231343L147.07944974899291,33.45197505725636L147.30297474861146,127.61268534020945L147.7500247478485,83.52340673525917L147.97354974746705,55.42957830116451L148.19707474708557,28.0933457523671L148.4205997467041,65.16406508118489L148.86764974594118,63.34764625640521L149.09117474555967,102.02832937637395L149.31469974517822,71.86411327401687L149.53822474479676,108.47734120788122L149.76174974441528,103.60580444293295L150.20879974365235,99.25286799442237L150.43232474327087,105.6164268122782L150.6558497428894,80.15004367306943L150.87937474250793,85.04914715192038L151.326424741745,89.63725554414447L151.54994974136352,77.22077377463044L151.77347474098204,143.77598816471928L151.9969997406006,116.17301372294504L152.44404973983765,109.11413540767136L152.6675747394562,74.08277608253917L152.8910997390747,124.38850928552307L153.11462473869324,76.82297168965724L153.5616747379303,92.72554265529509L153.78519973754882,87.69962054874703L154.00872473716737,92.51164761392971L154.2322497367859,42.703006404181934L154.67929973602295,66.2688889598674L154.90282473564147,83.24657903792254L155.12634973526002,43.93958128337863L155.34987473487854,139.8493289282855L155.7969247341156,84.80094655956123L156.02044973373413,45.88659745844774L156.24397473335267,122.99895831410288L156.4674997329712,94.4361641555742L156.6910247325897,74.99469859071218L156.91454973220823,114.89287991265866L157.13807473182678,88.54861730903392L157.36159973144532,136.36779906837916L157.8086497306824,84.7836210819349L158.03217473030088,42.27676373253104L158.25569972991943,67.03115471074494L158.47922472953795,47.30808796168827L158.92627472877504,127.63686018428976L159.14979972839356,113.26750418347565L159.37332472801208,110.56708878485492L159.5968497276306,78.43198216505365L160.0438997268677,133.8293126403725L160.2674247264862,88.26805233761598L160.49094972610476,54.761870420202996L160.71447472572325,59.04164333859373L161.16152472496032,94.67700072913364L161.38504972457886,73.69461077638924L161.6085747241974,105.50647082050051L161.83209972381593,95.15550997324102L162.27914972305297,66.3031945108612L162.50267472267151,71.84778946874133L162.72619972229003,73.60741692527296L162.94972472190858,90.95783964719044L163.39677472114562,74.61474008975367L163.62029972076417,58.24928596868098L163.84382472038268,150.98271590950375L164.06734972000123,30.774387426106216L164.51439971923827,118.94825404617092L164.73792471885682,117.3702297868403L164.96144971847534,60.04031758043163L165.18497471809388,46.46546736402061L165.63202471733095,74.95856239714622L165.85554971694944,127.37282971474528L166.079074716568,66.89655067105227L166.30259971618653,98.81513717712053L166.7496497154236,53.00825990586138L166.97317471504212,101.87544654330037L167.19669971466064,105.00890562342971L167.42022471427916,28.147104471222008L167.86727471351625,96.13705907192275L168.09079971313477,81.87510997945569L168.3143247127533,88.38428087073527L168.5378497123718,55.71078572450399L168.98489971160888,43.792176561851164L169.20842471122742,86.74234646138068L169.43194971084597,104.31505064006959L169.65547471046446,94.98546745658538L170.10252470970153,97.08173281192448L170.32604970932007,118.92103619056974L170.5495747089386,56.911341847582776L170.77309970855714,45.7078438463827L171.22014970779418,84.3325507521544L171.44367470741273,92.79032667809405L171.66719970703124,130.2408663461668L171.8907247066498,85.05621412305744L172.1142497062683,114.52590515779215L172.56129970550538,75.36565585668379L172.7848247051239,6.7332562425173705L173.00834970474244,67.95720425310688L173.23187470436096,101.88623006426319L173.678924703598,89.44255116340348L173.90244970321655,87.88180747914554L174.1259747028351,68.02798449384031L174.3494997024536,90.4991289752031L174.79654970169065,65.52973766199536L175.0200747013092,121.08712501684514L175.24359970092772,110.54723494805344L175.46712470054626,58.535398132496795L175.91417469978333,88.83906084225634L176.13769969940185,71.64418056620595L176.36122469902037,80.01941178235408L176.58474969863892,92.97166391401566L177.03179969787598,76.54727691828978L177.25532469749453,48.50474792472667L177.47884969711302,61.89089688641634L177.70237469673157,102.96218505498699L178.14942469596863,93.22546696345417L178.37294969558718,40.14263516233149L178.5964746952057,46.141243294277956L178.81999969482422,100.383935688696L179.04352469444274,108.90674432850103L179.26704969406128,141.806392913246L179.4905746936798,108.95747039796285L179.71409969329835,77.47727097728831L180.1611496925354,90.85863263594966L180.38467469215394,129.98596491118502L180.60819969177246,77.5160253351367L180.831724691391,78.27976250815716L181.27877469062804,87.93676820482143L181.5022996902466,76.15056631077468L181.7258246898651,27.326686459316363L181.94934968948365,37.160856908454775L182.39639968872072,67.18981270302729L182.6199246883392,94.11753563482569L182.84344968795776,101.81826832228235L183.0669746875763,48.598062339310644L183.51402468681337,110.16492424409184L183.7375496864319,55.662926510391046L183.9610746860504,81.9608185922587L184.18459968566893,129.18624006842995L184.63164968490602,133.61075118746942L184.85517468452454,86.1303384712091L185.07869968414306,64.99789800031408L185.30222468376158,61.71704110674246L185.74927468299865,105.29556007193202L185.9727996826172,75.31692622383841L186.19632468223574,116.65616174624942L186.41984968185423,110.26315030723734L186.8668996810913,102.02597371932826L187.09042468070984,58.01535057221432L187.31394968032836,79.42868760261581L187.5374746799469,6.208877312828292L187.98452467918395,123.26392137514637L188.2080496788025,106.99814056106399L188.43157467842101,70.86691045432188L188.65509967803956,86.56523697358799L189.1021496772766,116.75610446856166L189.32567467689515,120.81815181235584L189.54919967651367,71.62553564431063L189.7727246761322,56.74437342883134L190.21977467536925,52.38232521597102L190.44329967498777,125.72639814193982L190.66682467460632,57.88428347213275L190.89034967422486,39.96899353329812L191.33739967346193,71.13271975579967L191.56092467308042,95.58333459639766L191.78444967269897,94.28356455399293L192.0079746723175,68.5327651858795L192.45502467155458,99.46502910640808L192.6785496711731,93.11188422695804L192.90207467079162,89.6432034054827L193.12559967041014,93.43069926600637L193.57264966964723,61.425015622014286L193.79617466926575,106.05300743339792L194.0196996688843,93.36571490873723L194.2432246685028,125.03022895004509L194.46674966812134,106.61536010731028L194.9137996673584,92.1910364727351L195.13732466697695,67.25783661777474L195.36084966659547,63.64910818548648L195.584374666214,74.95177174941628L196.03142466545106,123.09718437724838L196.25494966506957,82.98640673394998L196.47847466468812,59.32084741723159L196.70199966430664,97.29839108736104L197.1490496635437,126.94313300050541L197.37257466316223,105.83546492305858L197.59609966278077,60.67904604407157L197.8196246623993,41.115528430285224L198.26667466163636,70.01424550080549L198.49019966125488,102.04083991863126L198.71372466087342,65.46472567238551L198.93724966049194,71.04336367402267L199.38429965972898,33.850212351595786L199.60782465934753,132.16316884651172L199.83134965896608,67.98898835301071L200.0548746585846,116.05063008593218L200.50192465782166,63.11819420721905L200.72544965744018,63.69727135534727L200.9489746570587,100.86419958643859L201.17249965667725,79.64200236482624L201.3960246562958,116.62809765021393L201.6195496559143,84.9717006089902L201.84307465553283,42.33837003614815L202.06659965515135,79.08729694120589L202.51364965438842,90.38359125060161L202.73717465400696,109.77643425793853L202.9606996536255,119.25317347188377L203.184224653244,94.62241304005735L203.63127465248107,116.06134107200063L203.85479965209962,121.05326503734533L204.07832465171813,80.64681098630217L204.30184965133668,130.25252028586203L204.74889965057372,104.79335264162164L204.97242465019227,77.86493199322027L205.19594964981079,86.25382740185042L205.41947464942933,110.25057759221345L205.86652464866637,54.52640142882683L206.09004964828492,104.0771430946256L206.31357464790344,112.90201812096498L206.53709964752198,106.61260723536685L206.98414964675902,73.18976791158344L207.20767464637754,31.57622268888315L207.4311996459961,119.70635076764356L207.65472464561464,94.34327804227127L208.1017746448517,86.5011713916475L208.3252996444702,100.50904801935415L208.54882464408874,67.38022025478759L208.77234964370726,79.88968485079707L209.21939964294435,122.00768608553318L209.44292464256287,59.303231800027774L209.6664496421814,129.20001133623222L209.8899746417999,47.21788218543438L210.337024641037,84.88296625487924L210.56054964065552,89.25366339038236L210.78407464027407,119.82455501312373L211.00759963989256,109.96128425517314L211.45464963912963,134.22538425000863L211.67817463874817,86.29705819889413L211.90169963836672,59.589095272777215L212.12522463798524,103.62397961503618L212.57227463722228,52.25268118143613L212.79579963684083,94.11697607992626L213.01932463645934,83.1118990092929L213.2428496360779,113.67530572174397L213.68989963531493,116.13429390552254L213.91342463493348,143.747203900804L214.136949634552,93.84853479799567L214.36047463417054,90.90164928235285L214.80752463340758,125.41455336083607L215.03104963302613,79.77854757645393L215.25457463264465,111.37864026943465L215.4780996322632,49.09885015811696L215.92514963150026,60.07687516719342L216.14867463111875,52.46505644406234L216.3721996307373,108.51511807167694L216.59572463035585,82.43851959040028L216.81924962997437,77.52707136333628L217.26629962921143,79.7003687764949L217.48982462882995,98.75856686759816L217.71334962844847,94.56432985988101L217.93687462806702,98.28739400994978L218.38392462730408,68.13997837074551L218.6074496269226,119.89349079511467L218.83097462654112,73.25619605865477L219.05449962615967,110.81339310783272L219.50154962539673,131.8626326008443L219.72507462501528,92.14066271561738L219.94859962463377,109.67941710969917L220.17212462425232,129.77689171327384L220.61917462348939,64.13744763480211L220.8426996231079,93.55787711413272L221.06622462272645,78.83420542454074L221.28974962234497,90.86452523260645L221.73679962158204,71.61863446721783L221.96032462120056,92.74169375844117L222.1838496208191,132.5119442509769L222.40737462043762,123.59787548286221L222.8544246196747,49.77720339833775L223.0779496192932,24.92829599871891L223.30147461891175,57.432957543200686L223.52499961853027,96.28312362492568L223.7485246181488,108.98939265957023L223.9720496177673,111.67830955041224L224.19557461738586,72.36675245965088L224.4190996170044,73.47494748390027L224.86614961624147,98.62965509009213L225.08967461585996,94.98226901314798L225.3131996154785,78.74540198957799L225.53672461509703,-16.313414631192188L225.98377461433412,66.3057021457808L226.20729961395264,45.187153834178645L226.43082461357116,118.78101621209754L226.65434961318968,64.7957605199216L227.10139961242677,63.295814893314926L227.3249246120453,80.77948076214503L227.54844961166384,106.1401114794069L227.77197461128233,112.33394900656786L228.2190246105194,75.92293799607553L228.44254961013795,45.14745997674606L228.6660746097565,104.3219103686513L228.889599609375,122.55938649210111L229.33664960861205,53.57589035684971L229.5601746082306,89.87168832274394L229.78369960784912,114.56860057823457L230.00722460746766,48.62291762978097L230.4542746067047,101.21043972364345L230.67779960632325,104.1678462530123L230.90132460594177,69.43006327773074L231.1248496055603,85.55844573166596L231.57189960479735,28.548049734951206L231.7954246044159,69.70405175205926L232.01894960403442,106.48825134003569L232.24247460365297,90.99931579059894L232.68952460289003,65.31122111164592L232.91304960250852,108.13262430345812L233.13657460212707,92.28815033416697L233.36009960174562,115.38596867053414L233.80714960098268,52.923000318594916L234.0306746006012,111.78856258985259L234.25419960021972,129.45522708908962L234.47772459983824,95.21657053812908L234.92477459907533,57.35587022069974L235.14829959869385,142.90185288246977L235.37182459831237,66.78684337034097L235.5953495979309,92.59513873139062L236.04239959716796,138.87530618840518L236.2659245967865,115.30376936500153L236.48944959640505,120.05280160144633L236.71297459602354,96.00143954370891L237.1600245952606,63.7915667180265L237.38354959487916,91.97916550032687L237.60707459449767,95.41396216400429L237.83059959411622,92.56060521358596L238.27764959335326,106.08870841759764L238.5011745929718,80.73578712339437L238.72469959259033,36.46269818802878L238.94822459220887,74.11739249736596L239.1717495918274,87.39993399755647L239.61879959106446,70.34537765572612L239.84232459068298,132.91473051940602L240.06584959030153,90.21303062755763L240.28937458992004,85.39805381000394L240.73642458915708,89.93431011488221L240.95994958877563,80.20392673745758L241.18347458839418,100.73438975785942L241.4069995880127,47.213074158150505L241.85404958724973,90.48813130359977L242.07757458686828,92.61618766692787L242.3010995864868,82.2254397030859L242.52462458610535,49.85858064173419L242.9716745853424,118.11335668773225L243.19519958496093,87.77690129763293L243.41872458457945,95.34059829941428L243.642249584198,118.69660631930796L244.08929958343506,44.514997146362504L244.3128245830536,73.2575983999459L244.5363495826721,101.42486668756752L244.75987458229065,134.7870443883819L245.20692458152772,68.86894715106524L245.43044958114626,100.61155709530999L245.65397458076478,84.15009440643395" fill="none"></path></g></g></g></g></g></g><g transform="translate(61, 178)" clip-path="url(#clip_1)"><clipPath id="clip_1"><rect width="268" height="21"></rect></clipPath><g><g><line x1="0" y1="0" x2="0" y2="5" style="visibility: inherit;" fill="rgb(0, 0, 0)" stroke="rgb(204, 204, 204)" stroke-width="1px"></line><line x1="22.352499961853027" y1="0" x2="22.352499961853027" y2="5" style="visibility: inherit;" fill="rgb(0, 0, 0)" stroke="rgb(204, 204, 204)" stroke-width="1px"></line><line x1="44.704999923706055" y1="0" x2="44.704999923706055" y2="5" style="visibility: inherit;" fill="rgb(0, 0, 0)" stroke="rgb(204, 204, 204)" stroke-width="1px"></line><line x1="67.05749988555908" y1="0" x2="67.05749988555908" y2="5" style="visibility: inherit;" fill="rgb(0, 0, 0)" stroke="rgb(204, 204, 204)" stroke-width="1px"></line><line x1="89.40999984741211" y1="0" x2="89.40999984741211" y2="5" style="visibility: inherit;" fill="rgb(0, 0, 0)" stroke="rgb(204, 204, 204)" stroke-width="1px"></line><line x1="111.76249980926514" y1="0" x2="111.76249980926514" y2="5" style="visibility: inherit;" fill="rgb(0, 0, 0)" stroke="rgb(204, 204, 204)" stroke-width="1px"></line><line x1="134.11499977111816" y1="0" x2="134.11499977111816" y2="5" style="visibility: inherit;" fill="rgb(0, 0, 0)" stroke="rgb(204, 204, 204)" stroke-width="1px"></line><line x1="156.4674997329712" y1="0" x2="156.4674997329712" y2="5" style="visibility: inherit;" fill="rgb(0, 0, 0)" stroke="rgb(204, 204, 204)" stroke-width="1px"></line><line x1="178.81999969482422" y1="0" x2="178.81999969482422" y2="5" style="visibility: inherit;" fill="rgb(0, 0, 0)" stroke="rgb(204, 204, 204)" stroke-width="1px"></line><line x1="201.17249965667725" y1="0" x2="201.17249965667725" y2="5" style="visibility: inherit;" fill="rgb(0, 0, 0)" stroke="rgb(204, 204, 204)" stroke-width="1px"></line><line x1="223.52499961853027" y1="0" x2="223.52499961853027" y2="5" style="visibility: inherit;" fill="rgb(0, 0, 0)" stroke="rgb(204, 204, 204)" stroke-width="1px"></line><line x1="245.8774995803833" y1="0" x2="245.8774995803833" y2="5" style="visibility: inherit;" fill="rgb(0, 0, 0)" stroke="rgb(204, 204, 204)" stroke-width="1px"></line><line x1="268.2299995422363" y1="0" x2="268.2299995422363" y2="5" style="visibility: inherit;" fill="rgb(0, 0, 0)" stroke="rgb(204, 204, 204)" stroke-width="1px"></line></g><g transform="translate(0, 8)"><text style="text-anchor: middle; visibility: hidden; font-family: &quot;Helvetica Neue&quot;, sans-serif; font-size: 12px; font-weight: 200;" x="0" y="0" dx="0em" dy="0.95em" fill="rgb(50, 49, 63)" stroke="none" stroke-width="1px">-100</text><text style="text-anchor: middle; visibility: hidden; font-family: &quot;Helvetica Neue&quot;, sans-serif; font-size: 12px; font-weight: 200;" x="22.352499961853027" y="0" dx="0em" dy="0.95em" fill="rgb(50, 49, 63)" stroke="none" stroke-width="1px">0</text><text style="text-anchor: middle; visibility: hidden; font-family: &quot;Helvetica Neue&quot;, sans-serif; font-size: 12px; font-weight: 200;" x="44.704999923706055" y="0" dx="0em" dy="0.95em" fill="rgb(50, 49, 63)" stroke="none" stroke-width="1px">100</text><text style="text-anchor: middle; visibility: hidden; font-family: &quot;Helvetica Neue&quot;, sans-serif; font-size: 12px; font-weight: 200;" x="67.05749988555908" y="0" dx="0em" dy="0.95em" fill="rgb(50, 49, 63)" stroke="none" stroke-width="1px">200</text><text style="text-anchor: middle; visibility: hidden; font-family: &quot;Helvetica Neue&quot;, sans-serif; font-size: 12px; font-weight: 200;" x="89.40999984741211" y="0" dx="0em" dy="0.95em" fill="rgb(50, 49, 63)" stroke="none" stroke-width="1px">300</text><text style="text-anchor: middle; visibility: hidden; font-family: &quot;Helvetica Neue&quot;, sans-serif; font-size: 12px; font-weight: 200;" x="111.76249980926514" y="0" dx="0em" dy="0.95em" fill="rgb(50, 49, 63)" stroke="none" stroke-width="1px">400</text><text style="text-anchor: middle; visibility: hidden; font-family: &quot;Helvetica Neue&quot;, sans-serif; font-size: 12px; font-weight: 200;" x="134.11499977111816" y="0" dx="0em" dy="0.95em" fill="rgb(50, 49, 63)" stroke="none" stroke-width="1px">500</text><text style="text-anchor: middle; visibility: hidden; font-family: &quot;Helvetica Neue&quot;, sans-serif; font-size: 12px; font-weight: 200;" x="156.4674997329712" y="0" dx="0em" dy="0.95em" fill="rgb(50, 49, 63)" stroke="none" stroke-width="1px">600</text><text style="text-anchor: middle; visibility: hidden; font-family: &quot;Helvetica Neue&quot;, sans-serif; font-size: 12px; font-weight: 200;" x="178.81999969482422" y="0" dx="0em" dy="0.95em" fill="rgb(50, 49, 63)" stroke="none" stroke-width="1px">700</text><text style="text-anchor: middle; visibility: hidden; font-family: &quot;Helvetica Neue&quot;, sans-serif; font-size: 12px; font-weight: 200;" x="201.17249965667725" y="0" dx="0em" dy="0.95em" fill="rgb(50, 49, 63)" stroke="none" stroke-width="1px">800</text><text style="text-anchor: middle; visibility: hidden; font-family: &quot;Helvetica Neue&quot;, sans-serif; font-size: 12px; font-weight: 200;" x="223.52499961853027" y="0" dx="0em" dy="0.95em" fill="rgb(50, 49, 63)" stroke="none" stroke-width="1px">900</text><text style="text-anchor: middle; visibility: hidden; font-family: &quot;Helvetica Neue&quot;, sans-serif; font-size: 12px; font-weight: 200;" x="245.8774995803833" y="0" dx="0em" dy="0.95em" fill="rgb(50, 49, 63)" stroke="none" stroke-width="1px">1k</text><text style="text-anchor: middle; visibility: hidden; font-family: &quot;Helvetica Neue&quot;, sans-serif; font-size: 12px; font-weight: 200;" x="268.2299995422363" y="0" dx="0em" dy="0.95em" fill="rgb(50, 49, 63)" stroke="none" stroke-width="1px">1.1k</text></g><line x1="0" y1="0" x2="268.2299995422363" y2="0" fill="rgb(0, 0, 0)" stroke="rgb(204, 204, 204)" stroke-width="1px"></line></g></g></g></g></svg>